subject_02
version=1
nRows=285
nColumns=3
inDegrees=yes
endheader
time	r_shoulder_elev	r_elbow_flex
52.0200	20.436163	90.476032
52.0300	20.436163	89.959832
52.0400	20.436163	89.567728
52.0500	20.436163	89.262463
52.0600	20.436163	88.989339
52.0700	20.436163	88.693922
52.0800	20.436163	88.338161
52.0900	20.436163	87.910426
52.1000	20.436163	87.426892
52.1100	20.436163	86.924218
52.1200	20.436163	86.446005
52.1300	20.436163	86.027213
52.1400	20.436163	85.681230
52.1500	20.436163	85.393472
52.1600	20.436163	85.123464
52.1700	20.436163	84.814936
52.1800	20.436163	84.411188
52.1900	20.436163	83.871477
52.2000	20.436163	83.183889
52.2100	20.436163	82.371059
52.2200	20.436163	81.487065
52.2300	20.436163	80.606122
52.2400	20.436163	79.805899
52.2500	20.436163	79.149632
52.2600	20.436163	78.671487
52.2700	20.436163	78.368720
52.2800	20.436163	78.202405
52.2900	20.436163	78.106321
52.3000	20.436163	78.001614
52.3100	20.436163	77.813551
52.3200	20.436163	77.486408
52.3300	20.436163	76.993211
52.3400	20.436163	76.338581
52.3500	20.436163	75.554684
52.3600	20.436163	74.691962
52.3700	20.436163	73.807374
52.3800	20.436163	72.953116
52.3900	20.436163	72.168287
52.4000	20.436163	71.474823
52.4100	20.436163	70.877762
52.4200	20.436163	70.368739
52.4300	20.436163	69.931002
52.4400	20.436163	69.544183
52.4500	20.436163	69.187578
52.4600	20.436163	68.841505
52.4700	20.436163	68.487164
52.4800	20.436163	68.105972
52.4900	20.436163	67.679478
52.5000	20.436163	67.190639
52.5100	20.436163	66.626545
52.5200	20.436163	65.981976
52.5300	20.436163	65.262611
52.5400	20.436163	64.486558
52.5500	20.436163	63.683207
52.5600	20.436163	62.889123
52.5700	20.436163	62.141573
52.5800	20.436163	61.471074
52.5900	20.436163	60.894786
52.6000	20.436163	60.412503
52.6100	20.436163	60.006392
52.6200	20.436163	59.644719
52.6300	20.436163	59.288725
52.6400	20.436163	58.901009
52.6500	20.436163	58.453368
52.6600	20.436163	57.932190
52.6700	20.436163	57.340185
52.6800	20.436163	56.694202
52.6900	20.436163	56.019935
52.7000	20.436163	55.345058
52.7100	20.436163	54.692672
52.7200	20.436163	54.076726
52.7300	20.436163	53.500388
52.7400	20.436163	52.957475
52.7500	20.436163	52.436135
52.7600	20.436163	51.923455
52.7700	20.436163	51.409482
52.7800	20.436163	50.889511
52.7900	20.436163	50.364145
52.8000	20.436163	49.837410
52.8100	20.436163	49.313851
52.8200	20.436163	48.795808
52.8300	20.436163	48.281970
52.8400	20.436163	47.767761
52.8500	20.436163	47.247416
52.8600	20.436163	46.716973
52.8700	20.436163	46.176972
52.8800	20.436163	45.633706
52.8900	20.436163	45.098327
52.9000	20.436163	44.583805
52.9100	20.436163	44.100550
52.9200	20.436163	43.652083
52.9300	20.436163	43.232256
52.9400	20.436163	42.825233
52.9500	20.436163	42.408625
52.9600	20.436163	41.959228
52.9700	20.436163	41.459900
52.9800	20.436163	40.905619
52.9900	20.436163	40.306787
53.0000	20.436163	39.688497
53.0100	20.436163	39.085558
53.0200	20.436163	38.534263
53.0300	20.436163	38.062960
53.0400	20.436163	37.683933
53.0500	20.436163	37.388929
53.0600	20.436163	37.149813
53.0700	20.436163	36.924475
53.0800	20.436163	36.666697
53.0900	20.436163	36.337539
53.1000	20.436163	35.915299
53.1100	20.436163	35.401363
53.1200	20.436163	34.820298
53.1300	20.436163	34.214025
53.1400	20.436163	33.631507
53.1500	20.436163	33.116562
53.1600	20.436163	32.696985
53.1700	20.436163	32.377812
53.1800	20.436163	32.140459
53.1900	20.436163	31.947939
53.2000	20.436163	31.754712
53.2100	20.436163	31.518538
53.2200	20.436163	31.211180
53.2300	20.436163	30.825187
53.2400	20.436163	30.375079
53.2500	20.436163	29.892800
53.2600	20.436163	29.418817
53.2700	20.436163	28.991406
53.2800	20.436163	28.637011
53.2900	20.436163	28.364170
53.3000	20.436163	28.162444
53.3100	20.436163	28.006287
53.3200	20.436163	27.862535
53.3300	20.436163	27.699197
53.3400	20.436163	27.493085
53.3500	20.436163	27.234321
53.3600	20.436163	26.926784
53.3700	20.436163	26.584863
53.3800	20.436163	26.227924
53.3900	20.436163	25.874460
53.4000	20.436163	25.537835
53.4100	20.436163	25.224776
53.4200	20.436163	24.936767
53.4300	20.436163	24.673388
53.4400	20.436163	24.435962
53.4500	20.436163	24.229756
53.4600	20.436163	24.063513
53.4700	20.436163	23.946116
53.4800	20.436163	23.881344
53.4900	20.436163	23.862588
53.5000	20.436163	23.869737
53.5100	20.436163	23.870014
53.5200	20.436163	23.823449
53.5300	20.436163	23.692196
53.5400	20.436163	23.451499
53.5500	20.436163	23.099203
53.5600	20.436163	22.660707
53.5700	20.436163	22.187142
53.5800	20.436163	21.746311
53.5900	20.436163	21.407914
53.6000	20.436163	21.226422
53.6100	20.436163	21.225972
53.6200	20.436163	21.391539
53.6300	20.436163	21.669317
53.6400	20.436163	21.977005
53.6500	20.436163	22.222083
53.6600	20.436163	22.323879
53.6700	20.436163	22.233978
53.6800	20.436163	21.949580
53.6900	20.436163	21.516004
53.7000	20.436163	21.017155
53.7100	20.436163	20.555863
53.7200	20.436163	20.228746
53.7300	20.436163	20.101818
53.7400	20.436163	20.193137
53.7500	20.436163	20.467143
53.7600	20.436163	20.842463
53.7700	20.436163	21.211539
53.7800	20.436163	21.467314
53.7900	20.436163	21.530323
53.8000	20.436163	21.369288
53.8100	20.436163	21.009841
53.8200	20.436163	20.529017
53.8300	20.436163	20.036717
53.8400	20.436163	19.648723
53.8500	20.436163	19.458017
53.8600	20.436163	19.511615
53.8700	20.436163	19.798753
53.8800	20.436163	20.253362
53.8900	20.436163	20.770140
53.9000	20.436163	21.230108
53.9100	20.436163	21.529168
53.9200	20.436163	21.602526
53.9300	20.436163	21.439001
53.9400	20.436163	21.081932
53.9500	20.436163	20.616847
53.9600	20.436163	20.149400
53.9700	20.436163	19.779446
53.9800	20.436163	19.577888
53.9900	20.436163	19.571959
54.0000	20.436163	19.742212
54.0100	20.436163	20.031331
54.0200	20.436163	20.361768
54.0300	20.436163	20.657103
54.0400	20.436163	20.861261
54.0500	20.436163	20.950663
54.0600	20.436163	20.936543
54.0700	20.436163	20.857219
54.0800	20.436163	20.763348
54.0900	20.436163	20.700710
54.1000	20.436163	20.695625
54.1100	20.436163	20.747142
54.1200	20.436163	20.828110
54.1300	20.436163	20.894592
54.1400	20.436163	20.900725
54.1500	20.436163	20.814548
54.1600	20.436163	20.630132
54.1700	20.436163	20.372357
54.1800	20.436163	20.092807
54.1900	20.436163	19.857711
54.2000	20.436163	19.731097
54.2100	20.436163	19.757642
54.2200	20.436163	19.949812
54.2300	20.436163	20.282754
54.2400	20.436163	20.698360
54.2500	20.436163	21.117553
54.2600	20.436163	21.457808
54.2700	20.436163	21.651321
54.2800	20.436163	21.659680
54.2900	20.436163	21.481586
54.3000	20.436163	21.152062
54.3100	20.436163	20.733728
54.3200	20.436163	20.302620
54.3300	20.436163	19.932158
54.3400	20.436163	19.679048
54.3500	20.436163	19.574094
54.3600	20.436163	19.619444
54.3700	20.436163	19.792060
54.3800	20.436163	20.051766
54.3900	20.436163	20.351325
54.4000	20.436163	20.645889
54.4100	20.436163	20.899813
54.4200	20.436163	21.089848
54.4300	20.436163	21.204921
54.4400	20.436163	21.243646
54.4500	20.436163	21.211071
54.4600	20.436163	21.116086
54.4700	20.436163	20.970261
54.4800	20.436163	20.788081
54.4900	20.436163	20.587868
54.5000	20.436163	20.392257
54.5100	20.436163	20.227223
54.5200	20.436163	20.119191
54.5300	20.436163	20.090497
54.5400	20.436163	20.154244
54.5500	20.436163	20.310038
54.5600	20.436163	20.542066
54.5700	20.436163	20.820505
54.5800	20.436163	21.106343
54.5900	20.436163	21.358778
54.6000	20.436163	21.543511
54.6100	20.436163	21.639949
54.6200	20.436163	21.645467
54.6300	20.436163	21.575650
54.6400	20.436163	21.460396
54.6500	20.436163	21.336898
54.6600	20.436163	21.241260
54.6700	20.436163	21.200859
54.6800	20.436163	21.229289
54.6900	20.436163	21.324972
54.7000	20.436163	21.473510
54.7100	20.436163	21.652859
54.7200	20.436163	21.839719
54.7300	20.436163	22.015329
54.7400	20.436163	22.169182
54.7500	20.436163	22.299894
54.7600	20.436163	22.413368
54.7700	20.436163	22.519173
54.7800	20.436163	22.626509
54.7900	20.436163	22.741129
54.8000	20.436163	22.864130
54.8100	20.436163	22.992823
54.8200	20.436163	23.123145
54.8300	20.436163	23.252518
54.8400	20.436163	23.381973
54.8500	20.436163	23.516603
54.8600	20.436163	23.664055
